<mxfile host="app.diagrams.net" agent="Mozilla/5.0 (X11; Linux x86_64) AppleWebKit/537.36 (KHTML, like Gecko) Chrome/140.0.0.0 Safari/537.36" version="28.2.5">
  <diagram id="C5RBs43oDa-KdzZeNtuy" name="Page-1">
    <mxGraphModel dx="1426" dy="799" grid="1" gridSize="10" guides="1" tooltips="1" connect="1" arrows="1" fold="1" page="1" pageScale="1" pageWidth="3000" pageHeight="9000" math="0" shadow="0">
      <root>
        <mxCell id="WIyWlLk6GJQsqaUBKTNV-0" />
        <mxCell id="WIyWlLk6GJQsqaUBKTNV-1" parent="WIyWlLk6GJQsqaUBKTNV-0" />
        <mxCell id="_FP0eEG4TLwUHT1xteoR-0" value="RestauranteController&lt;div&gt;&lt;br&gt;&lt;/div&gt;" style="swimlane;fontStyle=1;align=center;verticalAlign=top;childLayout=stackLayout;horizontal=1;startSize=26;horizontalStack=0;resizeParent=1;resizeParentMax=0;resizeLast=0;collapsible=1;marginBottom=0;whiteSpace=wrap;html=1;" vertex="1" parent="WIyWlLk6GJQsqaUBKTNV-1">
          <mxGeometry x="590" y="40" width="470" height="340" as="geometry" />
        </mxCell>
        <mxCell id="_FP0eEG4TLwUHT1xteoR-1" value="- mesa_controller: MesaController&lt;br&gt;- funcionario_controller: FuncionarioController&lt;br&gt;- cardapio_controller: CardapioController&lt;br&gt;- pedido_controller: PedidoController&lt;br&gt;- conta_controller: ContaController&lt;br&gt;- fila_controller: FilaController&lt;br&gt;- cliente_controller: ClienteController" style="text;strokeColor=none;fillColor=none;align=left;verticalAlign=top;spacingLeft=4;spacingRight=4;overflow=hidden;rotatable=0;points=[[0,0.5],[1,0.5]];portConstraint=eastwest;whiteSpace=wrap;html=1;" vertex="1" parent="_FP0eEG4TLwUHT1xteoR-0">
          <mxGeometry y="26" width="470" height="124" as="geometry" />
        </mxCell>
        <mxCell id="_FP0eEG4TLwUHT1xteoR-2" value="" style="line;strokeWidth=1;fillColor=none;align=left;verticalAlign=middle;spacingTop=-1;spacingLeft=3;spacingRight=3;rotatable=0;labelPosition=right;points=[];portConstraint=eastwest;strokeColor=inherit;" vertex="1" parent="_FP0eEG4TLwUHT1xteoR-0">
          <mxGeometry y="150" width="470" height="8" as="geometry" />
        </mxCell>
        <mxCell id="_FP0eEG4TLwUHT1xteoR-3" value="&lt;div data-ved=&quot;0CAAQhtANahcKEwi997TD64-QAxUAAAAAHQAAAAAQdg&quot; data-hveid=&quot;0&quot; class=&quot;code-block ng-tns-c3159429359-102 ng-animate-disabled ng-trigger ng-trigger-codeBlockRevealAnimation&quot;&gt;&lt;div class=&quot;formatted-code-block-internal-container ng-tns-c3159429359-102&quot;&gt;&lt;div class=&quot;animated-opacity ng-tns-c3159429359-102&quot;&gt;&lt;pre class=&quot;ng-tns-c3159429359-102&quot;&gt;&lt;span style=&quot;font-size: 10px;&quot;&gt;+ &amp;lt;&amp;lt;create&amp;gt;&amp;gt; __init__()&lt;br/&gt;+ &amp;lt;&amp;lt;property&amp;gt;&amp;gt; mesas(): List[Mesa]&lt;br/&gt;+ &amp;lt;&amp;lt;property&amp;gt;&amp;gt; fila_de_espera(): FilaDeEspera&lt;br/&gt;+ &amp;lt;&amp;lt;property&amp;gt;&amp;gt; cardapio(): Cardapio&lt;br/&gt;+ &amp;lt;&amp;lt;property&amp;gt;&amp;gt; funcionarios(): List[Funcionario]&lt;br/&gt;+ receber_clientes(numero_pessoas: int): str&lt;br/&gt;+ realizar_pedido(numero_mesa: int, id_prato: int, quantidade: int): str&lt;br/&gt;+ finalizar_atendimento(numero_mesa: int): Conta&lt;br/&gt;+ confirmar_e_enviar_pedido_para_cozinha(id_pedido: int): str&lt;br/&gt;- _processar_fila(): void&lt;/span&gt;&lt;/pre&gt;&lt;/div&gt;&lt;/div&gt;&lt;/div&gt;&lt;p&gt;&lt;/p&gt;" style="text;strokeColor=none;fillColor=none;align=left;verticalAlign=top;spacingLeft=4;spacingRight=4;overflow=hidden;rotatable=0;points=[[0,0.5],[1,0.5]];portConstraint=eastwest;whiteSpace=wrap;html=1;dashed=1;" vertex="1" parent="_FP0eEG4TLwUHT1xteoR-0">
          <mxGeometry y="158" width="470" height="182" as="geometry" />
        </mxCell>
        <mxCell id="_FP0eEG4TLwUHT1xteoR-30" style="edgeStyle=orthogonalEdgeStyle;rounded=0;orthogonalLoop=1;jettySize=auto;html=1;endArrow=diamond;endFill=1;startArrow=open;startFill=0;" edge="1" parent="WIyWlLk6GJQsqaUBKTNV-1" source="_FP0eEG4TLwUHT1xteoR-4">
          <mxGeometry relative="1" as="geometry">
            <mxPoint x="825" y="390" as="targetPoint" />
          </mxGeometry>
        </mxCell>
        <mxCell id="_FP0eEG4TLwUHT1xteoR-37" value="1&lt;div&gt;&lt;br&gt;&lt;/div&gt;" style="edgeLabel;html=1;align=center;verticalAlign=middle;resizable=0;points=[];" vertex="1" connectable="0" parent="_FP0eEG4TLwUHT1xteoR-30">
          <mxGeometry x="0.05" y="-1" relative="1" as="geometry">
            <mxPoint x="-16" y="-37" as="offset" />
          </mxGeometry>
        </mxCell>
        <mxCell id="_FP0eEG4TLwUHT1xteoR-38" value="1" style="edgeLabel;html=1;align=center;verticalAlign=middle;resizable=0;points=[];" vertex="1" connectable="0" parent="_FP0eEG4TLwUHT1xteoR-30">
          <mxGeometry x="0.0961" relative="1" as="geometry">
            <mxPoint x="-15" y="46" as="offset" />
          </mxGeometry>
        </mxCell>
        <mxCell id="_FP0eEG4TLwUHT1xteoR-43" value="- mesa_controller" style="edgeLabel;html=1;align=center;verticalAlign=middle;resizable=0;points=[];" vertex="1" connectable="0" parent="_FP0eEG4TLwUHT1xteoR-30">
          <mxGeometry x="0.1078" y="1" relative="1" as="geometry">
            <mxPoint x="46" y="46" as="offset" />
          </mxGeometry>
        </mxCell>
        <mxCell id="_FP0eEG4TLwUHT1xteoR-4" value="Mesa Controller" style="swimlane;fontStyle=1;align=center;verticalAlign=top;childLayout=stackLayout;horizontal=1;startSize=26;horizontalStack=0;resizeParent=1;resizeParentMax=0;resizeLast=0;collapsible=1;marginBottom=0;whiteSpace=wrap;html=1;" vertex="1" parent="WIyWlLk6GJQsqaUBKTNV-1">
          <mxGeometry x="665" y="510" width="320" height="170" as="geometry" />
        </mxCell>
        <mxCell id="_FP0eEG4TLwUHT1xteoR-5" value="- mesas: List[Mesa]" style="text;strokeColor=none;fillColor=none;align=left;verticalAlign=top;spacingLeft=4;spacingRight=4;overflow=hidden;rotatable=0;points=[[0,0.5],[1,0.5]];portConstraint=eastwest;whiteSpace=wrap;html=1;" vertex="1" parent="_FP0eEG4TLwUHT1xteoR-4">
          <mxGeometry y="26" width="320" height="26" as="geometry" />
        </mxCell>
        <mxCell id="_FP0eEG4TLwUHT1xteoR-6" value="" style="line;strokeWidth=1;fillColor=none;align=left;verticalAlign=middle;spacingTop=-1;spacingLeft=3;spacingRight=3;rotatable=0;labelPosition=right;points=[];portConstraint=eastwest;strokeColor=inherit;" vertex="1" parent="_FP0eEG4TLwUHT1xteoR-4">
          <mxGeometry y="52" width="320" height="8" as="geometry" />
        </mxCell>
        <mxCell id="_FP0eEG4TLwUHT1xteoR-7" value="&lt;pre class=&quot;ng-tns-c3159429359-102&quot;&gt;&lt;span style=&quot;font-size: 10px;&quot;&gt;+ &amp;lt;&amp;lt;create&amp;gt;&amp;gt; __init__()&lt;br/&gt;+ listar_mesas(): List[Mesa]&lt;br/&gt;+ encontrar_mesa_livre(qtd: int): Mesa&lt;br/&gt;+ ocupar_mesa(numero: int, grupo: GrupoCliente)&lt;br/&gt;+ liberar_mesa(numero: int)&lt;/span&gt;&lt;/pre&gt;" style="text;strokeColor=none;fillColor=none;align=left;verticalAlign=top;spacingLeft=4;spacingRight=4;overflow=hidden;rotatable=0;points=[[0,0.5],[1,0.5]];portConstraint=eastwest;whiteSpace=wrap;html=1;" vertex="1" parent="_FP0eEG4TLwUHT1xteoR-4">
          <mxGeometry y="60" width="320" height="110" as="geometry" />
        </mxCell>
        <mxCell id="_FP0eEG4TLwUHT1xteoR-35" style="edgeStyle=orthogonalEdgeStyle;rounded=0;orthogonalLoop=1;jettySize=auto;html=1;dashed=1;endArrow=open;endFill=0;" edge="1" parent="WIyWlLk6GJQsqaUBKTNV-1" source="_FP0eEG4TLwUHT1xteoR-9">
          <mxGeometry relative="1" as="geometry">
            <mxPoint x="425" y="380" as="targetPoint" />
          </mxGeometry>
        </mxCell>
        <mxCell id="_FP0eEG4TLwUHT1xteoR-9" value="Mesa" style="swimlane;fontStyle=1;align=center;verticalAlign=top;childLayout=stackLayout;horizontal=1;startSize=26;horizontalStack=0;resizeParent=1;resizeParentMax=0;resizeLast=0;collapsible=1;marginBottom=0;whiteSpace=wrap;html=1;" vertex="1" parent="WIyWlLk6GJQsqaUBKTNV-1">
          <mxGeometry x="290" y="500" width="270" height="240" as="geometry" />
        </mxCell>
        <mxCell id="_FP0eEG4TLwUHT1xteoR-10" value="&lt;div&gt;&lt;font face=&quot;monospace&quot;&gt;- id_mesa: int&lt;/font&gt;&lt;/div&gt;&lt;div&gt;&lt;font face=&quot;monospace&quot;&gt;- capacidade: int&lt;/font&gt;&lt;/div&gt;&lt;div&gt;&lt;font face=&quot;monospace&quot;&gt;- status: StatusMesa&lt;/font&gt;&lt;/div&gt;&lt;div&gt;&lt;font face=&quot;monospace&quot;&gt;- grupo_cliente: GrupoCliente&lt;/font&gt;&lt;/div&gt;&lt;div&gt;&lt;font face=&quot;monospace&quot;&gt;- conta: Conta&lt;/font&gt;&lt;/div&gt;" style="text;strokeColor=none;fillColor=none;align=left;verticalAlign=top;spacingLeft=4;spacingRight=4;overflow=hidden;rotatable=0;points=[[0,0.5],[1,0.5]];portConstraint=eastwest;whiteSpace=wrap;html=1;" vertex="1" parent="_FP0eEG4TLwUHT1xteoR-9">
          <mxGeometry y="26" width="270" height="84" as="geometry" />
        </mxCell>
        <mxCell id="_FP0eEG4TLwUHT1xteoR-11" value="" style="line;strokeWidth=1;fillColor=none;align=left;verticalAlign=middle;spacingTop=-1;spacingLeft=3;spacingRight=3;rotatable=0;labelPosition=right;points=[];portConstraint=eastwest;strokeColor=inherit;" vertex="1" parent="_FP0eEG4TLwUHT1xteoR-9">
          <mxGeometry y="110" width="270" height="8" as="geometry" />
        </mxCell>
        <mxCell id="_FP0eEG4TLwUHT1xteoR-12" value="&lt;pre class=&quot;ng-tns-c3159429359-102&quot;&gt;&lt;span style=&quot;font-size: 10px;&quot;&gt;+ &amp;lt;&amp;lt;create&amp;gt;&amp;gt; __init__(id: int, cap: int)&lt;br/&gt;+ ocupar(grupo: GrupoCliente): bool&lt;br/&gt; + liberar()&lt;br/&gt; + limpar()&lt;br/&gt; + &amp;lt;&amp;lt;property&amp;gt;&amp;gt; id_mesa: int&lt;br/&gt; + &amp;lt;&amp;lt;&amp;lt;property&amp;gt;&amp;gt; status: StatusMesa&lt;/span&gt;&lt;/pre&gt;" style="text;strokeColor=none;fillColor=none;align=left;verticalAlign=top;spacingLeft=4;spacingRight=4;overflow=hidden;rotatable=0;points=[[0,0.5],[1,0.5]];portConstraint=eastwest;whiteSpace=wrap;html=1;" vertex="1" parent="_FP0eEG4TLwUHT1xteoR-9">
          <mxGeometry y="118" width="270" height="122" as="geometry" />
        </mxCell>
        <mxCell id="_FP0eEG4TLwUHT1xteoR-13" value="MesaView" style="swimlane;fontStyle=1;align=center;verticalAlign=top;childLayout=stackLayout;horizontal=1;startSize=26;horizontalStack=0;resizeParent=1;resizeParentMax=0;resizeLast=0;collapsible=1;marginBottom=0;whiteSpace=wrap;html=1;" vertex="1" parent="WIyWlLk6GJQsqaUBKTNV-1">
          <mxGeometry x="1120" y="550" width="350" height="110" as="geometry" />
        </mxCell>
        <mxCell id="_FP0eEG4TLwUHT1xteoR-15" value="" style="line;strokeWidth=1;fillColor=none;align=left;verticalAlign=middle;spacingTop=-1;spacingLeft=3;spacingRight=3;rotatable=0;labelPosition=right;points=[];portConstraint=eastwest;strokeColor=inherit;" vertex="1" parent="_FP0eEG4TLwUHT1xteoR-13">
          <mxGeometry y="26" width="350" height="8" as="geometry" />
        </mxCell>
        <mxCell id="_FP0eEG4TLwUHT1xteoR-16" value="&lt;code&gt;+ exibir_mesas(mesas: List[Mesa]): void&lt;/code&gt;&lt;br/&gt; &lt;code&gt;+ exibir_detalhes_mesa(mesa: Mesa): void&lt;/code&gt;&lt;br/&gt; &lt;code&gt;+ exibir_mensagem_sucesso(mensagem: str): void&lt;/code&gt;&lt;br/&gt; &lt;code&gt;+ exibir_mensagem_erro(mensagem: str): void&lt;/code&gt;" style="text;strokeColor=none;fillColor=none;align=left;verticalAlign=top;spacingLeft=4;spacingRight=4;overflow=hidden;rotatable=0;points=[[0,0.5],[1,0.5]];portConstraint=eastwest;whiteSpace=wrap;html=1;" vertex="1" parent="_FP0eEG4TLwUHT1xteoR-13">
          <mxGeometry y="34" width="350" height="76" as="geometry" />
        </mxCell>
        <mxCell id="_FP0eEG4TLwUHT1xteoR-25" value="&lt;div&gt;&amp;lt;&amp;lt;Enum&amp;gt;&amp;gt;&lt;/div&gt;StatusMesa" style="swimlane;fontStyle=1;align=center;verticalAlign=top;childLayout=stackLayout;horizontal=1;startSize=40;horizontalStack=0;resizeParent=1;resizeParentMax=0;resizeLast=0;collapsible=1;marginBottom=0;whiteSpace=wrap;html=1;" vertex="1" parent="WIyWlLk6GJQsqaUBKTNV-1">
          <mxGeometry x="345" y="220" width="160" height="150" as="geometry" />
        </mxCell>
        <mxCell id="_FP0eEG4TLwUHT1xteoR-27" value="" style="line;strokeWidth=1;fillColor=none;align=left;verticalAlign=middle;spacingTop=-1;spacingLeft=3;spacingRight=3;rotatable=0;labelPosition=right;points=[];portConstraint=eastwest;strokeColor=inherit;" vertex="1" parent="_FP0eEG4TLwUHT1xteoR-25">
          <mxGeometry y="40" width="160" height="8" as="geometry" />
        </mxCell>
        <mxCell id="_FP0eEG4TLwUHT1xteoR-28" value="&lt;p&gt;&lt;code&gt;LIVRE&lt;/code&gt;&lt;/p&gt;&lt;p&gt;&lt;code&gt;OCUPADA&lt;/code&gt;&lt;/p&gt;&lt;p&gt;&lt;span style=&quot;background-color: transparent; color: light-dark(rgb(0, 0, 0), rgb(255, 255, 255));&quot;&gt;SUJA&lt;/span&gt;&lt;/p&gt;" style="text;strokeColor=none;fillColor=none;align=left;verticalAlign=top;spacingLeft=4;spacingRight=4;overflow=hidden;rotatable=0;points=[[0,0.5],[1,0.5]];portConstraint=eastwest;whiteSpace=wrap;html=1;" vertex="1" parent="_FP0eEG4TLwUHT1xteoR-25">
          <mxGeometry y="48" width="160" height="102" as="geometry" />
        </mxCell>
        <mxCell id="_FP0eEG4TLwUHT1xteoR-32" style="edgeStyle=orthogonalEdgeStyle;rounded=0;orthogonalLoop=1;jettySize=auto;html=1;entryX=-0.006;entryY=0.551;entryDx=0;entryDy=0;entryPerimeter=0;dashed=1;endArrow=open;endFill=0;" edge="1" parent="WIyWlLk6GJQsqaUBKTNV-1" source="_FP0eEG4TLwUHT1xteoR-7" target="_FP0eEG4TLwUHT1xteoR-16">
          <mxGeometry relative="1" as="geometry" />
        </mxCell>
        <mxCell id="_FP0eEG4TLwUHT1xteoR-41" value="1" style="edgeLabel;html=1;align=center;verticalAlign=middle;resizable=0;points=[];" vertex="1" connectable="0" parent="_FP0eEG4TLwUHT1xteoR-32">
          <mxGeometry x="0.2519" relative="1" as="geometry">
            <mxPoint x="-68" y="-8" as="offset" />
          </mxGeometry>
        </mxCell>
        <mxCell id="_FP0eEG4TLwUHT1xteoR-42" value="1" style="edgeLabel;html=1;align=center;verticalAlign=middle;resizable=0;points=[];" vertex="1" connectable="0" parent="_FP0eEG4TLwUHT1xteoR-32">
          <mxGeometry x="0.1765" y="-1" relative="1" as="geometry">
            <mxPoint x="37" y="-7" as="offset" />
          </mxGeometry>
        </mxCell>
        <mxCell id="_FP0eEG4TLwUHT1xteoR-33" style="edgeStyle=orthogonalEdgeStyle;rounded=0;orthogonalLoop=1;jettySize=auto;html=1;entryX=1.001;entryY=0.065;entryDx=0;entryDy=0;entryPerimeter=0;endArrow=none;endFill=0;startArrow=diamond;startFill=0;" edge="1" parent="WIyWlLk6GJQsqaUBKTNV-1" source="_FP0eEG4TLwUHT1xteoR-7" target="_FP0eEG4TLwUHT1xteoR-12">
          <mxGeometry relative="1" as="geometry" />
        </mxCell>
        <mxCell id="_FP0eEG4TLwUHT1xteoR-39" value="1" style="edgeLabel;html=1;align=center;verticalAlign=middle;resizable=0;points=[];" vertex="1" connectable="0" parent="_FP0eEG4TLwUHT1xteoR-33">
          <mxGeometry x="-0.2017" y="-1" relative="1" as="geometry">
            <mxPoint x="28" y="-10" as="offset" />
          </mxGeometry>
        </mxCell>
        <mxCell id="_FP0eEG4TLwUHT1xteoR-40" value="0..*" style="edgeLabel;html=1;align=center;verticalAlign=middle;resizable=0;points=[];" vertex="1" connectable="0" parent="_FP0eEG4TLwUHT1xteoR-33">
          <mxGeometry x="0.0996" y="1" relative="1" as="geometry">
            <mxPoint x="-28" y="-17" as="offset" />
          </mxGeometry>
        </mxCell>
        <mxCell id="_FP0eEG4TLwUHT1xteoR-44" value="-mesas" style="edgeLabel;html=1;align=center;verticalAlign=middle;resizable=0;points=[];" vertex="1" connectable="0" parent="_FP0eEG4TLwUHT1xteoR-33">
          <mxGeometry x="0.1207" y="-1" relative="1" as="geometry">
            <mxPoint x="-26" y="15" as="offset" />
          </mxGeometry>
        </mxCell>
        <mxCell id="_FP0eEG4TLwUHT1xteoR-34" style="edgeStyle=orthogonalEdgeStyle;rounded=0;orthogonalLoop=1;jettySize=auto;html=1;entryX=0.444;entryY=1;entryDx=0;entryDy=0;entryPerimeter=0;dashed=1;endArrow=open;endFill=0;" edge="1" parent="WIyWlLk6GJQsqaUBKTNV-1" source="_FP0eEG4TLwUHT1xteoR-13" target="_FP0eEG4TLwUHT1xteoR-12">
          <mxGeometry relative="1" as="geometry">
            <Array as="points">
              <mxPoint x="1295" y="800" />
              <mxPoint x="410" y="800" />
            </Array>
          </mxGeometry>
        </mxCell>
      </root>
    </mxGraphModel>
  </diagram>
</mxfile>
